<?xml version="1.0" encoding="utf-8"?>
<!-- Generator: Adobe Illustrator 21.0.2, SVG Export Plug-In . SVG Version: 6.00 Build 0)  -->
<svg version="1.1" id="Icon" xmlns="http://www.w3.org/2000/svg" xmlns:xlink="http://www.w3.org/1999/xlink" x="0px" y="0px"
	 viewBox="0 0 512 512" style="enable-background:new 0 0 512 512;" xml:space="preserve">
<style type="text/css">
	.st0{fill:#FFFFFF;}
</style>
<path class="st0" d="M338,330c0,5.5-4.5,10-10,10s-10-4.5-10-10s4.5-10,10-10S338,324.5,338,330z"/>
<path class="st0" d="M308,0H108c-5.5,0-10,4.5-10,10v320c0,5.5,4.5,10,10,10h110.2c1.1,18.2,7.1,30.3,19.8,61.9v31.8
	c-11.6,4.1-20,15.2-20,28.3v40c0,5.5,4.5,10,10,10h160c5.5,0,10-4.5,10-10v-40c0-13-8.4-24.2-20-28.3v-32.5
	c0,0,34.4-144.8,34.4-144.9c3.9-17.8,2.4-36.2-4.4-53.3c-18.3-45.8-22.9-65.8-33.2-80.7c-0.6-0.9-1.4-1.7-2.3-2.4L318,79.7V10
	C318,4.5,313.5,0,308,0z M118,20h180v140c-7.3,0-14.1,2-20,5.4V70c0-5.5-4.5-10-10-10c-5.5,0-10-4.5-10-10c0-5.5-4.5-10-10-10h-80
	c-5.5,0-10,4.5-10,10c0,5.5-4.5,10-10,10c-5.5,0-10,4.5-10,10v200c0,5.5,4.5,10,10,10c5.5,0,10,4.5,10,10c0,5.5,4.5,10,10,10h55.9
	c-0.1,0.1-0.1,0.3-0.2,0.4c-2.4,6.4-4,12.9-4.9,19.6H118V20z M234.5,280h-58.2c-3-8.5-9.8-15.3-18.3-18.3V78.3
	c8.5-3,15.3-9.8,18.3-18.3h63.4c3,8.5,9.8,15.3,18.3,18.3v176.8C248.6,262.7,240.7,271.1,234.5,280z M378,492H238v-30
	c0-5.5,4.5-10,10-10h120c5.5,0,10,4.5,10,10V492z M359.2,135c7.7,12.1,13.4,33.3,30.2,75.4c5.3,13.3,6.5,27.7,3.5,41.5l-34.6,145.8
	c-0.2,0.8-0.3,1.5-0.3,2.3v32H258v-32c0-1.3-0.2-2.5-0.7-3.7c-15.6-38.9-19.7-45.4-19.3-66c0.7-26,15.1-46.6,36-62.3
	c2.5-1.9,4-4.9,4-8v-60c0-11,9-20,20-20c11.1,0,20,9.1,20,20v90c0,5.5,4.5,10,10,10s10-4.5,10-10v-90c0-14.4-7.8-27.6-20-34.6v-60.8
	L359.2,135z"/>
<path class="st0" d="M208,140c-16.5,0-30,13.5-30,30s13.5,30,30,30s30-13.5,30-30S224.5,140,208,140z M208,180c-5.5,0-10-4.5-10-10
	s4.5-10,10-10s10,4.5,10,10S213.5,180,208,180z"/>
<path class="st0" d="M208,120c5.5,0,10-4.5,10-10V90c0-5.5-4.5-10-10-10s-10,4.5-10,10v20C198,115.5,202.5,120,208,120z"/>
<path class="st0" d="M208,220c-5.5,0-10,4.5-10,10v20c0,5.5,4.5,10,10,10s10-4.5,10-10v-20C218,224.5,213.5,220,208,220z"/>
</svg>
