<?xml version="1.0" encoding="utf-8"?>
<!-- Generator: Adobe Illustrator 21.0.2, SVG Export Plug-In . SVG Version: 6.00 Build 0)  -->
<svg version="1.1" id="Icon" xmlns="http://www.w3.org/2000/svg" xmlns:xlink="http://www.w3.org/1999/xlink" x="0px" y="0px"
	 viewBox="0 0 512 512" style="enable-background:new 0 0 512 512;" xml:space="preserve">
<style type="text/css">
	.st0{fill:#FFFFFF;}
</style>
<g id="hand">
	<path class="st0" d="M236.3,372.5c3.3-3.3,3.3-8.5,0-11.8c-3.3-3.3-8.5-3.3-11.8,0c-3.3,3.3-3.3,8.5,0,11.8
		C227.8,375.8,233.1,375.8,236.3,372.5z"/>
	<path class="st0" d="M136.1,507.5c3.2,3.3,8.5,3.3,11.8,0.1l40.4-39.8c6.9-6.9,9-17,5.9-25.9l8.7-8.4c4.7-4.5,10.9-7,17.4-7h110.9
		c19.7,0,38.3-7.6,52.4-21.3c0.6-0.6-4.4,5.3,75.7-90.4c11.9-14,10.1-35.1-4-47c-14-11.8-34.9-10.1-46.8,3.7l-49.2,50.6
		c-6.2-7.6-15.7-12.4-25.9-12.4h-93c-13.2-5.5-27.3-8.3-41.8-8.3c-40.2,0-75.2,18.6-94.1,53.3c-7.9-1.5-16.3,0.9-22.3,6.9
		l-39.7,39.8c-3.2,3.2-3.2,8.5,0,11.8L136.1,507.5z M198.5,318c12.8,0,25.1,2.6,36.7,7.6c1.1,0.5,2.2,0.7,3.3,0.7h94.7
		c9,0,16.7,7.4,16.7,16.7c0,9.2-7.5,16.7-16.7,16.7h-68.1c-4.6,0-8.3,3.7-8.3,8.3c0,4.6,3.7,8.3,8.3,8.3h68.1
		c18.4,0,33.4-15,33.4-33.4c0-1.5-0.1-2.9-0.3-4.4c47.6-48.9,54.3-55.8,54.6-56.2c5.9-7,16.5-7.9,23.5-2c7,5.9,7.9,16.5,2,23.5
		l-74.8,89.4c-10.9,10.5-25.3,16.3-40.4,16.3H220.3c-10.9,0-21.2,4.2-29,11.7l-7.1,6.8L118.9,363C134.2,334.3,162.8,318,198.5,318z
		 M93.9,373.4c2.8-2.8,7-3.2,10.3-1.2c1.4,0.9-2.7-2.9,72.2,72c3.3,3.3,3.2,8.6,0,11.8l-34.5,34l-82-82.6L93.9,373.4z"/>
</g>
<g id="money">
	<path id="Shape" class="st0" d="M252.6,224.3c0.7,33.9,28.4,60.9,62.2,60.8c33.9-0.1,61.4-27.3,62-61.1l53.4-0.1
		c5.5,0,10.8-2.2,14.6-6.1c3.9-3.9,6.1-9.1,6.1-14.6L449.8,25c-0.1-11.4-9.4-20.6-20.8-20.6L82.4,5.2c-5.5,0-10.8,2.2-14.7,6.1
		c-3.9,3.9-6,9.1-6,14.6l1.1,178.3c0.2,11.4,9.5,20.5,20.9,20.5L252.6,224.3z M362.4,182.9c-9.4-11.3-22.6-18.9-37.1-21.4
		c-0.2,0-0.3-0.1-0.5-0.1c9.7-13.8,14.8-30.2,14.7-47.1c-0.3-27.7-14.4-53.4-37.6-68.4l72.6-0.1c3.1,17.2,16.7,30.6,33.9,33.6l0.3,0
		l0.4,69.6c-8.5,1.4-16.4,5.5-22.5,11.7c-6,6-10,13.7-11.3,22.1L362.4,182.9z M267.8,182.1c-3.7,0.6-7.4,0.9-11.1,1
		c-38.1,0.3-69.3-30.3-69.8-68.4c-0.1-18.1,7-35.4,19.7-48.2C226.4,46.7,256.1,40.6,282,51s43.2,35.4,43.7,63.4
		c0.1,17.3-6.4,34-18.3,46.6C292,162.9,277.9,170.4,267.8,182.1z M196.8,56.8c-15.4,15.4-23.9,36.3-23.7,58
		c0.3,27.7,14.4,53.4,37.7,68.4l-72.7,0.1c-3.2-17.2-16.9-30.7-34.1-33.7l-0.4-69.6c8.5-1.4,16.4-5.5,22.5-11.7
		c6-6,9.9-13.7,11.3-22.1l72.4-0.1C205.1,49.2,200.8,52.8,196.8,56.8z M306.5,270.4c-26.3-4.5-44-29.5-39.4-55.9
		c4.5-26.3,29.5-44,55.9-39.4c26.3,4.5,44,29.5,39.4,55.9C357.8,257.3,332.9,274.9,306.5,270.4z M76.5,204l-1-178.2
		c0-1.8,0.7-3.5,2-4.8c1.3-1.3,3.1-2.1,4.9-2L429,18.3c3.8,0,6.9,3,7,6.8l1.1,178.2c0,1.8-0.7,3.5-2,4.8c-1.3,1.3-3.1,2.1-4.9,2
		l-54.7,0.1c-1-4.7-2.4-9.2-4.4-13.5l10.5,0c1.8,0,3.6-0.7,4.9-2.1c1.3-1.3,2-3.1,2-4.9c-0.1-7.2,2.8-14.1,7.8-19.2
		c5.2-5.3,12.3-8.2,19.6-8.2c1.8,0,3.6-0.7,4.9-2c1.3-1.3,2-3.1,2-4.9l-0.5-82.3c0-3.8-3.1-6.9-6.9-6.9
		c-15.2,0.1-27.6-12.2-27.8-27.4c0-3.8-3.1-6.9-6.9-6.9L131,32.5c-1.8,0-3.6,0.7-4.9,2c-1.3,1.3-2,3.1-2,4.9
		c0.1,7.2-2.8,14.1-7.8,19.2c-5.2,5.3-12.3,8.2-19.6,8.2c-1.8,0-3.6,0.7-4.9,2c-1.3,1.3-2,3.1-2,4.9l0.5,82.3c0,3.8,3.1,6.9,6.9,6.9
		c15.2,0,27.6,12.2,27.8,27.4c0,3.3,2.4,6.2,5.7,6.8c0.4,0.1,0.8,0.1,1.2,0.1l124.9-0.3l0.1,0l1.5,0c-2,4.3-3.5,8.9-4.4,13.6
		l-170.3,0.3C79.7,210.9,76.6,207.9,76.5,204L76.5,204z"/>
	<path id="Shape_1_" class="st0" d="M256.7,108.7c-6.7,0.1-12.2-5.3-12.3-12c0-3.2,1.2-6.2,3.4-8.4c3.5-3.5,8.7-4.6,13.3-2.7
		c4.6,1.8,7.6,6.2,7.7,11.1c0,3.4,2.8,6.1,6.1,6c3.4,0,6.1-2.8,6-6.1c-0.1-11-7.7-20.6-18.4-23.3l0-6.9c-0.1-3.3-2.8-5.9-6.1-5.9
		s-6,2.7-6,5.9l0.1,6.8c-4.2,1.1-8.1,3.3-11.2,6.4c-4.5,4.5-7,10.7-7,17.1c0.2,13.4,11.1,24.2,24.5,24.1c6.7-0.1,12.2,5.3,12.3,12
		c0,3.2-1.2,6.2-3.4,8.4c-3.5,3.5-8.7,4.6-13.3,2.7c-4.6-1.8-7.6-6.2-7.7-11.1c0-3.4-2.8-6.1-6.1-6c-3.4,0-6.1,2.8-6,6.1
		c0.1,11,7.7,20.6,18.4,23.3l0,6.9c0,2.9,2.1,5.4,5,6c0.4,0.1,0.7,0.1,1.1,0.1c3.4,0,6.1-2.8,6-6.1l-0.1-6.8
		c4.2-1.1,8.1-3.2,11.2-6.3c4.5-4.5,7-10.7,7-17.1C281,119.4,270.1,108.6,256.7,108.7L256.7,108.7z"/>
	<path id="Shape_3_" class="st0" d="M331.4,217.3c1,2.8,4.1,4.2,6.9,3.2c2.8-1,4.2-4.1,3.2-6.9c-2.8-7.5-8.7-13.3-16.2-16l0.1-0.5
		c0.5-2.9-1.5-5.8-4.4-6.3s-5.8,1.5-6.3,4.4l-0.1,0.6c-12.8,0.3-23.7,9.7-25.8,22.4c-2.2,12.7,4.9,25.1,16.9,29.7l-0.1,0.6
		c-0.5,2.9,1.5,5.8,4.4,6.3c2.9,0.5,5.8-1.5,6.3-4.4l0.1-0.5c8,0,15.5-3.6,20.7-9.7c1.9-2.3,1.6-5.7-0.7-7.6
		c-2.3-1.9-5.7-1.6-7.6,0.7c-2.7,3.1-6.4,5.1-10.4,5.6l5.2-30.4C327.1,210.4,330,213.5,331.4,217.3z M299.5,220.1
		c1.2-6.7,6.5-12,13.3-13.1l-5.2,29.9C301.6,233.5,298.4,226.8,299.5,220.1z"/>
</g>
</svg>
