<?xml version="1.0" encoding="utf-8"?>
<!-- Generator: Adobe Illustrator 21.0.2, SVG Export Plug-In . SVG Version: 6.00 Build 0)  -->
<svg version="1.1" id="Icon" xmlns="http://www.w3.org/2000/svg" xmlns:xlink="http://www.w3.org/1999/xlink" x="0px" y="0px"
	 viewBox="0 0 512 512" style="enable-background:new 0 0 512 512;" xml:space="preserve">
<style type="text/css">
	.st0{fill:#FFFFFF;}
</style>
<path class="st0" d="M196.2,80.5c7.7,18.7,9.6,39.6,5,59.5l-19.4,83.7c-3-3.3-7-5.5-11.5-6.4c-5.7-1.2-11.5,0-16.3,3.2l-54.9,36.3
	c0,0,0,0,0,0c0,0,0,0,0,0c0,0-74.1,48.8-79.1,52.4C4.5,318,5.7,324.1,5.7,324.1c0.3,2.4,0.7,4.8,1.1,7.2
	C20,409.1,72.9,475.6,146.2,506c15.8-6.5,20.4-9.3,20.4-9.3l64.6-42.8c0,0,0,0,0,0c0,0,0,0,0,0l53.7-35.6h0
	c4.8-3.2,8.1-8.1,9.3-13.8c1.2-5.7,0-11.5-3.2-16.3l-0.7-1.1l10.4-6.9c7.4-4.9,16.4-6.9,25.2-5.5c12.8,2.1,25.7-0.8,36.5-7.9
	l127.4-84.4c8.2-5.4,13.8-13.7,15.8-23.4c2-9.6,0-19.5-5.4-27.7c-5.3-8-13.3-13.5-22.7-15.6c6-11.5,5.8-25.9-1.9-37.5
	c-5.5-8.2-13.7-13.6-22.7-15.6c1.6-3,2.8-6.3,3.5-9.8c2-9.6,0-19.5-5.4-27.7c-5.3-8-13.3-13.5-22.7-15.6c6-11.5,5.8-25.9-1.9-37.5
	c-11.2-16.9-34.1-21.6-51.1-10.4L339,86.1l-15.4,10.2l-24.3,16.1l-4.8-12.9c-2-5.4-4.3-10.6-6.8-15.8l-10.6-18.6
	c-6.8-10.4-14.8-20-23.6-28.6l-15.2-14.7C227.1,11,209.7,9.4,196.8,18c-15.3,10.1-19.5,30.8-9.4,46c0.4,0.6,0.8,1.2,1.2,1.8
	L196.2,80.5z M278.8,401.3c-0.3,1.5-1.2,2.8-2.5,3.7h0l-47.2,31.2l-87.6-130.6c-2.4-3.6-7.4-4.6-11-2.2c-3.6,2.4-4.6,7.4-2.2,11
	L215.8,445l-67.4,44.6C81.5,460.4,33.6,398.5,22.1,326.6l79.2-52.3l9.1,13.6c1.5,2.3,4,3.5,6.6,3.5c1.5,0,3.1-0.4,4.4-1.3
	c3.6-2.4,4.6-7.4,2.2-11l-9.1-13.5l48.2-31.8c1.3-0.9,2.8-1.2,4.3-0.8c1.5,0.3,2.8,1.2,3.7,2.5L277.9,397
	C278.8,398.3,279.1,399.8,278.8,401.3z M490.3,255.9c-1.1,5.5-4.3,10.2-9,13.3l-27.9,18.5c0,0,0,0,0,0l-99.5,65.9
	c-7.4,4.9-16.4,6.9-25.2,5.5c-12.8-2-25.7,0.8-36.5,7.9l-10.4,6.9L194,241.5l22.7-97.9c5.8-25.2,2.8-51.8-8.4-74.9
	c-0.1-0.2-0.2-0.5-0.3-0.7c-2.1-4.4-4.6-8.6-7.3-12.7c-5.3-8-3.1-18.7,4.9-24c6.7-4.5,15.8-3.6,21.6,2l15.2,14.7
	c16.4,15.9,29.3,35.7,37.3,57.1l8.3,22.3c0,0,0,0.1,0,0.1c0,0.1,0,0.1,0.1,0.2c0.1,0.1,0.1,0.3,0.2,0.4c0.2,0.3,0.3,0.7,0.5,1
	c2.4,3.7,7.4,4.7,11,2.2L384.5,75c9.6-6.4,22.7-3.7,29.1,5.9s3.7,22.7-5.9,29.1l-7.4,4.9c0,0,0,0,0,0l-16.4,10.9c0,0,0,0-0.1,0
	c-0.1,0.1-0.2,0.1-0.3,0.2c-3.4,2.5-4.3,7.2-1.9,10.8c2.4,3.7,7.4,4.7,11,2.2l16.4-10.9c4.7-3.1,10.3-4.2,15.7-3.1
	c5.5,1.1,10.2,4.3,13.3,9c3.1,4.7,4.2,10.3,3.1,15.7c-1.1,5.5-4.3,10.2-9,13.3l-23.8,15.7c-3.7,2.4-4.7,7.3-2.2,11
	c1.5,2.3,4.1,3.6,6.6,3.6c1.5,0,3-0.4,4.4-1.3l3.7-2.4l12.7-8.4c9.6-6.4,22.7-3.7,29.1,5.9c6.4,9.6,3.7,22.7-5.9,29.1l-11.9,7.9
	c-0.1,0-0.1,0.1-0.2,0.1l-11.7,7.8c-3.7,2.4-4.7,7.4-2.2,11c1.5,2.3,4.1,3.6,6.6,3.6c1.5,0,3-0.4,4.4-1.3l3.7-2.4c0,0,0,0,0,0
	l12.7-8.4c4.7-3.1,10.3-4.2,15.7-3.1c5.5,1.1,10.2,4.3,13.3,9C490.3,244.9,491.4,250.4,490.3,255.9z"/>
</svg>
