<?xml version="1.0" encoding="utf-8"?>
<!-- Generator: Adobe Illustrator 21.0.2, SVG Export Plug-In . SVG Version: 6.00 Build 0)  -->
<svg version="1.1" id="Icon" xmlns="http://www.w3.org/2000/svg" xmlns:xlink="http://www.w3.org/1999/xlink" x="0px" y="0px"
	 viewBox="0 0 512 512" style="enable-background:new 0 0 512 512;" xml:space="preserve">
<style type="text/css">
	.st0{fill:#12A79E;}
</style>
<path class="st0" d="M392.2,87.6c0.2,0,0.4,0,0.6,0c0.4,0,0.7,0,1.1-0.1c10,0.2,18.1,8.4,18.1,18.4c0,4.5,3.7,8.3,8.3,8.3
	s8.3-3.7,8.3-8.3c0-16.4-11.5-30.5-27.4-34V64c0-4.5-3.7-8.3-8.3-8.3s-8.3,3.7-8.3,8.3v8.3c-16.9,4.5-27.9,20.8-25.6,38.3
	c2.3,17.3,17.1,30.3,34.6,30.3c10.2,0,18.4,8.3,18.4,18.4c0,10.2-8.3,18.4-18.4,18.4c-10.2,0-18.4-8.3-18.4-18.4
	c0-4.5-3.7-8.3-8.3-8.3c-4.5,0-8.3,3.7-8.3,8.3c0,15.8,10.6,29.6,25.9,33.7v9.1c0,4.5,3.7,8.3,8.3,8.3s8.3-3.7,8.3-8.3v-8.7
	c17.4-3.8,29.1-20.1,27.2-37.9c-2-17.7-16.9-31.2-34.7-31.2c-9.9,0-18.1-7.8-18.4-17.6C374.7,96.8,382.3,88.4,392.2,87.6L392.2,87.6
	z"/>
<path class="st0" d="M394,15.5c-50.7,0-94,33.1-110.2,77.4H79.4c-4.5,0-8.3,4.1-8.3,8.6l-2,289.1H10.9c-4.5,0-8.5,3.3-8.5,7.8v36.7
	c0.1,34.6,27.3,62.9,61.8,64.5v0.2h254.4v-0.2c2.1,0.1,2.9,0.2,4.2,0.2h0.2c35.7-0.1,64.6-29,64.6-64.7V249.5
	c2.1,0.1,4.2,0.2,6.4,0.2c64.5,0,117-52.6,117-117.1C511,68,458.5,15.5,394,15.5z M67.3,483.2L67.3,483.2
	c-26.7,0-48.4-21.6-48.5-48.3v-28h238.9v27.9c0,17.2,6.9,33.6,19.1,45.8c0.8,0.8,2,1.5,2.9,2.6H67.3z M371.1,435
	c0,26.6-21.6,48.2-48.2,48.3h-0.2c-26.7,0-48.4-21.7-48.5-48.4v-36.5c0.1-2.1-0.7-4.1-2.3-5.7c-1.4-1.4-3.5-2.3-5.7-2.2H85.7
	l1.9-281.2h191.8c-1.4,7.5-2.2,15.2-2.3,22.9c0,16.2,3.4,32.3,9.9,47.1h-77.8c-4.5,0-8.3,3.7-8.3,8.3c0,4.5,3.7,8.3,8.3,8.3H296
	c17,26.7,44.2,45.4,75.2,51.6V435H371.1z M394,233.2c-55.5,0-100.5-45-100.5-100.5S338.5,32.2,394,32.2s100.5,45,100.5,100.5
	S449.5,233.2,394,233.2z"/>
<path class="st0" d="M156.2,234.2c-14.5,0-26.4,11.5-26.4,25.6c0,14.1,11.9,25.6,26.4,25.6s26.4-11.5,26.4-25.6
	C182.6,245.7,170.8,234.2,156.2,234.2z M156.2,268.8c-5.5,0-9.9-4-9.9-9.1c0-5,4.4-9.1,9.9-9.1s9.9,4,9.9,9.1
	C166.1,264.7,161.7,268.8,156.2,268.8z"/>
<path class="st0" d="M200.9,259.7c0,4.5,3.7,8.3,8.3,8.3H319c4.5,0,8.3-3.7,8.3-8.3s-3.7-8.3-8.3-8.3H209.1
	C204.6,251.4,200.9,255.1,200.9,259.7z"/>
<path class="st0" d="M156.2,162.5c-14.5,0-26.4,11.5-26.4,25.6s11.9,25.6,26.4,25.6s26.4-11.5,26.4-25.6
	C182.6,174.1,170.8,162.5,156.2,162.5z M156.2,197.2c-5.5,0-9.9-4-9.9-9.1s4.4-9.1,9.9-9.1s9.9,4,9.9,9.1
	C166.1,193,161.7,197.2,156.2,197.2L156.2,197.2z"/>
<path class="st0" d="M156.2,305.8c-14.5,0-26.4,11.5-26.4,25.6s11.9,25.6,26.4,25.6s26.4-11.5,26.4-25.6
	C182.6,317.3,170.8,305.8,156.2,305.8z M156.2,340.4c-5.5,0-9.9-4-9.9-9.1c0-5,4.4-9.1,9.9-9.1s9.9,4,9.9,9.1
	C166.1,336.3,161.7,340.4,156.2,340.4z"/>
<path class="st0" d="M319,323.5H209.1c-4.5,0-8.3,3.7-8.3,8.3c0,4.5,3.7,8.3,8.3,8.3H319c4.5,0,8.3-3.7,8.3-8.3
	C327.3,327.3,323.6,323.5,319,323.5z"/>
</svg>
